<svg width="50" height="50" viewBox="0 0 50 50" fill="none" xmlns="http://www.w3.org/2000/svg">
    <path d="M22.917 43.75v-4.167h16.667V24.792c0-4.063-1.416-7.51-4.246-10.34-2.83-2.83-6.277-4.245-10.338-4.244-4.062 0-7.509 1.416-10.34 4.246-2.83 2.83-4.244 6.277-4.243 10.338V37.5h-6.25V25.573H6.25l.157-2.76c.277-2.362.963-4.55 2.058-6.563a19.77 19.77 0 0 1 4.114-5.26 18.243 18.243 0 0 1 5.673-3.49A18.39 18.39 0 0 1 25 6.25c2.361 0 4.601.417 6.72 1.25a18.952 18.952 0 0 1 5.676 3.465 18.68 18.68 0 0 1 4.115 5.233c1.076 2.014 1.77 4.201 2.083 6.562l.156 2.813h2.084V37.5H43.75v6.25H22.917zM18.75 29.167c-.59 0-1.085-.2-1.485-.6-.4-.4-.6-.895-.598-1.484 0-.59.2-1.085.6-1.485.4-.4.894-.6 1.483-.598.59 0 1.086.2 1.486.6.4.4.599.894.598 1.483 0 .59-.2 1.086-.6 1.486-.4.4-.895.6-1.484.598zm12.5 0c-.59 0-1.085-.2-1.485-.6-.4-.4-.6-.895-.598-1.484 0-.59.2-1.085.6-1.485.4-.4.894-.6 1.483-.598.59 0 1.086.2 1.486.6.4.4.6.894.598 1.483 0 .59-.2 1.086-.6 1.486-.4.4-.895.6-1.484.598zm-18.698-3.23c-.243-3.68.869-6.84 3.334-9.479 2.465-2.639 5.538-3.958 9.219-3.958 3.09 0 5.807.98 8.152 2.942 2.344 1.96 3.759 4.47 4.243 7.527-3.16-.035-6.068-.886-8.725-2.552-2.657-1.667-4.696-3.924-6.118-6.771a16.62 16.62 0 0 1-3.517 7.423 16.65 16.65 0 0 1-6.588 4.869z" fill="#0057FF"/>
</svg>
